<?xml version="1.0" encoding="utf-8"?>
<!-- Generator: Adobe Illustrator 27.8.1, SVG Export Plug-In . SVG Version: 6.00 Build 0)  -->
<svg version="1.1" id="Layer_1" xmlns="http://www.w3.org/2000/svg" xmlns:xlink="http://www.w3.org/1999/xlink" x="0px" y="0px"
	 viewBox="0 0 413 410.6" style="enable-background:new 0 0 413 410.6;" xml:space="preserve">
<style type="text/css">
	.st0{clip-path:url(#SVGID_00000036970934570964192060000000494132877037259915_);fill:#FEBBCC;}
</style>
<g id="BACKGROUND">
</g>
<g id="OBJECTS">
	<g>
		<g>
			<defs>
				<rect id="SVGID_1_" y="-89.4" width="750" height="500"/>
			</defs>
			<clipPath id="SVGID_00000131358222879862852930000000680296688428084354_">
				<use xlink:href="#SVGID_1_"  style="overflow:visible;"/>
			</clipPath>
			<path style="clip-path:url(#SVGID_00000131358222879862852930000000680296688428084354_);fill:#FEBBCC;" d="M11.1,358.6
				c0,1.1,0.9,2,2,2s2-0.9,2-2c0-0.2-0.1-0.3-0.1-0.5l25.7-14.9v31.9l0.2,0.1l28.9,16.7l0,0l28.1,16.2V375l26.2-15.2
				c0.2,0.2,0.6,0.4,0.9,0.5v31.5l28.6-16.5l0.5,0.3V375l27.1-15.7v31.9l0.2,0.1l28.9,16.7v-33.6l-0.2-0.1l-27.9-16.1v-31.9l0.5-0.3
				l-0.5-0.3v-32.5l-0.2-0.1l-27.1-15.8l27.1-15.7l27.6,16v62.8c-0.9,0.2-1.5,1-1.5,1.9c0,1.1,0.9,2,2,2s2-0.9,2-2
				c0-0.2-0.1-0.3-0.1-0.5l26.2-15.2l27.2,15.7l-27.6,15.9v33.6l29.1-16.8v-32l28.1,16.2v-31.8c0.9-0.2,1.5-1,1.5-1.9
				c0-1.1-0.9-2-2-2c-0.7,0-1.2,0.3-1.6,0.8l-26.1-15.1v-64.9l-0.2-0.1l-26.5-15.3c0.1-0.2,0.1-0.3,0.1-0.5s-0.1-0.3-0.1-0.5
				l26.7-15.4v-30.9c0.3-0.1,0.7-0.3,0.9-0.5l26.2,15.2v33.1l28.6-16.5l27.6,15.9v64.4L323,308.9V277l-0.2-0.3l-26.5-15.3
				c0.1-0.2,0.1-0.3,0.1-0.5c0-1.1-0.9-2-2-2s-2,0.9-2,2c0,0.9,0.7,1.7,1.5,1.9v30.9l0.2,0.1l27.9,16.1V343l28.6-16.5l28.6,16.5l0,0
				l26.7,15.4l-25.8,14.9c-0.4-0.4-0.9-0.6-1.4-0.6c-0.6,0-1,0.2-1.4,0.6l-27.2-15.7v33.6l0.2,0.1l27.9,16.1v0.6l0.5-0.3l0.5,0.3
				v-0.6l28.1-16.2v-31.9l0,0v-33.6l-0.2-0.1l-27.9-16.1v-62.8c0.9-0.2,1.5-1,1.5-1.9c0-1.1-0.9-2-2-2c-0.6,0-1,0.2-1.4,0.6
				l-26.2-15.1v-32.5l-0.2-0.1l-27.4-15.8l27.6-16V133c0.3-0.1,0.7-0.3,0.9-0.5l26.2,15v33.1l0,0v31.9l0.2,0.1l28.9,16.7v-33.6
				l-0.2-0.1l-27.4-15.8l27.6-15.9v-32.5l0.5-0.3l-0.5-0.3V98.3l-0.2-0.1l-27.3-15.9l28.1-16.2l-28.7-16.5V19.3
				c0.9-0.2,1.5-1,1.5-1.9c0-1.1-0.9-2-2-2c-1.1,0-2,0.9-2,2c0,0.2,0.1,0.3,0.1,0.5l-26.7,15.5v32.3l-0.5,0.3l0.5,0.3v0.6l0.5-0.3
				l27.1,15.7l-27.6,16v30.9c-0.9,0.2-1.5,1-1.5,1.9c0,0.2,0.1,0.3,0.1,0.5L323,146.5V82.1l-0.2-0.1l-28.9-16.7v33.6l0.2,0.1
				l27.3,15.9l-27.1,15.7l-27.6-16V82.1l-0.2-0.1l-28.9-16.7v33.6l0.2,0.1l27.6,16.1v62.8c-0.9,0.2-1.5,1-1.5,1.9
				c0,0.2,0.1,0.3,0.1,0.5l-25.7,14.9v-31.9l-0.2-0.1l-28.9-16.7v33.1l-28.6,16.5l28.6,16.5v31.9l-27.6,16l-28.1-16.2l-28.1,16.2
				L96.8,244v33.6l0.2,0.1l26.5,15.3c-0.1,0.2-0.1,0.3-0.1,0.5c0,0.9,0.7,1.7,1.5,1.9v30.3l-27.6,16l-28.6-16.5v32.5L41.6,342v-33.1
				l-29.1,16.8v30.9C11.6,356.9,11,357.6,11.1,358.6z M322,114l-27.2-15.7V67L322,82.7V114z M379.3,180.7l27.1,15.7v31.3L379.3,212
				V180.7z M376.8,374.3c-0.1,0.2-0.1,0.3-0.1,0.5c0,0.9,0.7,1.7,1.5,1.9v29.7l-27.1-15.7v-31.3L376.8,374.3z M380.7,374.7
				c0-0.2-0.1-0.3-0.1-0.5l25.7-14.9v31.3l-27.1,15.7v-29.7C380.1,376.4,380.7,375.7,380.7,374.7z M69.7,326.9l27.1,15.7v31.3
				l-27.1-15.7V326.9z M126,326.8l26.6,15.4l-25.7,14.9c-0.2-0.2-0.6-0.4-0.9-0.5V326.8z M126,325.2v-29.7c0.9-0.2,1.5-1,1.5-1.9
				c0-0.2-0.1-0.3-0.1-0.5l25.7-14.9v31.3L126,325.2z M126,261.9l26.6,15.4l-25.7,14.9c-0.2-0.2-0.6-0.4-0.9-0.5V261.9z
				 M168.5,318.9l12.3,7.1l-27.2,15.7l-14.8-8.5l-12.3-7.1l27.1-15.7L168.5,318.9z M153.1,373.9L127.4,359c0.1-0.2,0.1-0.3,0.1-0.5
				s-0.1-0.3-0.1-0.5l25.7-14.9V373.9z M97.9,245.7l27.1,15.7v30.3c-0.3,0.1-0.7,0.3-0.9,0.5L97.9,277V245.7z M236.1,228.6
				c0,0.2,0.1,0.3,0.1,0.5L210.5,244v-31.3l27.1-15.7v29.7C236.7,226.9,236.1,227.7,236.1,228.6z M237.6,230.5v29.8L211,244.9
				l25.7-14.9C236.9,230.2,237.3,230.4,237.6,230.5L237.6,230.5z M182.8,196l27.1-15.7l13.8,8L237,196l-27.1,15.7L182.8,196z
				 M237.6,195.2l-27.1-15.7v-31.3l27.1,15.7V195.2z M265.7,114l-27.1-15.7V67l27.1,15.7V114z M266.8,147.1v-31.4l27.1,15.7v31.3
				l-18.3-10.5l-8.9-5.1H266.8z M294.8,163.9l13.6-7.8l13.6-7.8v31.3l-13.6,7.8l-13.6,7.8V163.9z M322.1,115.7v31.4l-13.6,7.8
				l-13.6,7.8v-31.3L322.1,115.7L322.1,115.7z M351.1,98.9l27.1-15.7v31.3L352,129.7c-0.2-0.2-0.6-0.4-0.9-0.5V98.9z M377.3,18.8
				c0.2,0.2,0.6,0.4,0.9,0.5v30.3l-27.1,15.6V33.9L377.3,18.8z M405.9,66.1l-26.7,15.4l0,0l-0.5,0.3l-0.5-0.3l0,0l-26.6-15.3
				l27.1-15.7L405.9,66.1z M406.4,130.2l-27.1-15.7V83.2l27.1,15.7V130.2z M406.4,163.3L379.3,179v-31.3l27.1-15.7V163.3z
				 M352.5,131.7c0.1-0.2,0.1-0.3,0.1-0.5s-0.1-0.3-0.1-0.5l26.2-15.2l14.8,8.5l12.3,7.1l-27.1,15.7L352.5,131.7z M350.1,163.3
				L323,179v-31.3l26.2-15.2c0.2,0.2,0.6,0.4,0.9,0.5V163.3z M350.1,227.7L323,212v-31.3l27.1,15.7V227.7z M378.2,276.4l-27.1-15.7
				v-31.3l25.7,14.9c-0.1,0.2-0.1,0.3-0.1,0.5c0,0.9,0.7,1.7,1.5,1.9C378.2,246.7,378.2,276.4,378.2,276.4z M351.1,262l27.1,15.7
				V309l-27.1-15.7V262z M379.3,310.7l27.1,15.7v31.3L379.3,342V310.7z M378.2,341.4l-27.1-15.7v-31.3l27.1,15.7
				C378.2,310.1,378.2,341.4,378.2,341.4z M322,308.9l-27.1-15.7v-30.3c0.3-0.1,0.7-0.3,0.9-0.5l26.2,15.2V308.9z M322.9,310.6v-0.5
				l27.1-15.7v31.3l-27.1,15.7V310.6L322.9,310.6z M294.8,196.3l13.6-7.8l13.6-7.8V212l-27.2,15.7V196.3z M268.1,180.3
				c0.1-0.2,0.1-0.3,0.1-0.5c0-0.9-0.7-1.7-1.5-1.9v-29.7l11.6,6.7l15.5,9v31.3L268.1,180.3z M239.5,227.2c-0.2-0.2-0.6-0.4-0.9-0.5
				v-30.3l26.2-15.2c0.2,0.2,0.6,0.4,0.9,0.5V212L239.5,227.2z M265.7,245.1v31.3L239.1,261l0,0l-0.5-0.3v-30.3
				c0.3-0.1,0.7-0.3,0.9-0.5L265.7,245.1L265.7,245.1z M265.7,341.4l-27.1-15.7v-31.3l27.1,15.7V341.4z M238.6,262l27.1,15.7V309
				l-27.1-15.7V262z M266.7,342v-31.4l25.7,14.8c0,0.1,0,0.1,0,0.2c0,0.9,0.7,1.7,1.5,1.9v30.1L266.7,342z M238.6,358.8l27.1-15.7
				v31.3l-27.1,15.7V358.8z M210.4,340.4v-30.3l27.1-15.7v31.3l-26.2,15.2C211.1,340.7,210.7,340.5,210.4,340.4L210.4,340.4z
				 M210.5,309v-31.3l27.1-15.7v31.3L210.5,309z M182.8,261l26.6-15.4l0,0l0.5-0.3L237,261l-27.1,15.7L182.8,261z M180.7,261.1
				l-26.6,15.4l0,0l-0.5,0.3l-0.5-0.3l0,0l-26.6-15.4l27.1-15.7L180.7,261.1z M181.3,293.8v31.3l-27.1-15.7v-31.3L181.3,293.8
				L181.3,293.8z M182.3,359.4l27.1,15.7v31.3l-27.1-15.7V359.4z M154.2,373.9v-31.3l27.1-15.7v31.3L154.2,373.9z M126,390.1v-29.7
				c0.3-0.1,0.7-0.3,0.9-0.5l25.7,14.9L126,390.1z M123.5,358.5c0,0.2,0.1,0.3,0.1,0.5l-25.7,14.9v-31.3l27.1-15.7v29.7
				C124.2,356.9,123.5,357.6,123.5,358.5z M69.8,390.7v-31.3l27.1,15.7v31.3L69.8,390.7z M41.6,343.2l27.1,15.7v31.3l-27.1-15.7
				V343.2z M14.4,357.2c-0.3-0.2-0.6-0.4-0.9-0.5v-30.3l27.1-15.7V342L14.4,357.2z"/>
		</g>
	</g>
</g>
</svg>
